<svg width="36" height="38" viewBox="0 0 36 38" fill="none" xmlns="http://www.w3.org/2000/svg">
<g filter="url(#filter0_i_1_343)">
<rect x="0.00012207" y="-0.00012207" width="36" height="37.6364" rx="5.24522" fill="url(#paint0_linear_1_343)"/>
<rect x="0.00012207" y="-0.00012207" width="36" height="37.6364" rx="5.24522" fill="url(#paint1_linear_1_343)" fill-opacity="0.45"/>
</g>
<path fill-rule="evenodd" clip-rule="evenodd" d="M14.5372 26.7428C17.9772 19.4317 23.224 13.6113 30.3471 9.31679C24.4401 8.46499 16.2744 16.9475 13.3555 21.845C12.2437 18.9702 9.53344 15.6695 7.17078 19.609C8.87344 19.1831 10.6108 23.655 11.6878 26.7429L14.5372 26.7429L14.5372 26.7428Z" fill="white"/>
<path fill-rule="evenodd" clip-rule="evenodd" d="M14.5372 26.7428C17.9772 19.4317 23.224 13.6113 30.3471 9.31679C24.4401 8.46499 16.2744 16.9475 13.3555 21.845C12.2437 18.9702 9.53344 15.6695 7.17078 19.609C8.87344 19.1831 10.6108 23.655 11.6878 26.7429L14.5372 26.7429L14.5372 26.7428Z" fill="url(#paint2_linear_1_343)" fill-opacity="0.2"/>
<defs>
<filter id="filter0_i_1_343" x="0.00012207" y="-0.00012207" width="36" height="42.4534" filterUnits="userSpaceOnUse" color-interpolation-filters="sRGB">
<feFlood flood-opacity="0" result="BackgroundImageFix"/>
<feBlend mode="normal" in="SourceGraphic" in2="BackgroundImageFix" result="shape"/>
<feColorMatrix in="SourceAlpha" type="matrix" values="0 0 0 0 0 0 0 0 0 0 0 0 0 0 0 0 0 0 127 0" result="hardAlpha"/>
<feOffset dy="4.81704"/>
<feGaussianBlur stdDeviation="2.40852"/>
<feComposite in2="hardAlpha" operator="arithmetic" k2="-1" k3="1"/>
<feColorMatrix type="matrix" values="0 0 0 0 1 0 0 0 0 1 0 0 0 0 1 0 0 0 0.25 0"/>
<feBlend mode="normal" in2="shape" result="effect1_innerShadow_1_343"/>
</filter>
<linearGradient id="paint0_linear_1_343" x1="2.98298" y1="-4.26466" x2="40.3188" y2="-0.344912" gradientUnits="userSpaceOnUse">
<stop stop-color="#A281EB"/>
<stop offset="1" stop-color="#6E3BE0"/>
</linearGradient>
<linearGradient id="paint1_linear_1_343" x1="37.0801" y1="-10.3833" x2="-6.74069" y2="-5.32146" gradientUnits="userSpaceOnUse">
<stop stop-color="white" stop-opacity="0.177083"/>
<stop offset="0.5" stop-color="white"/>
<stop offset="1" stop-color="white" stop-opacity="0"/>
</linearGradient>
<linearGradient id="paint2_linear_1_343" x1="27.747" y1="7.72993" x2="6.79856" y2="11.1532" gradientUnits="userSpaceOnUse">
<stop stop-color="white" stop-opacity="0.177083"/>
<stop offset="0.5" stop-color="white"/>
<stop offset="1" stop-color="white" stop-opacity="0"/>
</linearGradient>
</defs>
</svg>
