<svg width="36" height="38" viewBox="0 0 36 38" fill="none" xmlns="http://www.w3.org/2000/svg">
<g filter="url(#filter0_i_1_337)">
<rect x="0.00012207" y="-0.00012207" width="36" height="37.6364" rx="5.24522" fill="url(#paint0_linear_1_337)"/>
<rect x="0.00012207" y="-0.00012207" width="36" height="37.6364" rx="5.24522" fill="url(#paint1_linear_1_337)" fill-opacity="0.3"/>
</g>
<path d="M26.7607 8.35708C20.8172 11.9001 19.2915 13.4313 15.7292 16.6283C15.2902 16.0967 14.468 15.361 14.4479 15.3323C13.6669 13.9178 11.9745 12.6545 11.3827 11.4714C10.7678 10.2101 9.8053 9.64647 9.00241 9.63803C7.96918 9.62614 7.20014 10.5358 7.772 12.0525C7.94795 12.5171 8.38935 12.9139 8.62655 13.3605C9.66285 15.3059 11.1606 17.537 12.8477 19.481C11.5743 20.6031 9.75262 22.2051 9.18329 23.4181C8.87937 24.0659 7.99902 24.4102 7.62647 25.0315C7.35055 25.4884 6.55694 26.2343 6.81751 26.7822C6.98054 27.1241 5.54159 28.3594 6.50868 28.6085C8.75169 29.1922 9.46875 28.3694 10.0608 27.0897C10.3998 26.3534 11.4841 25.653 12.0209 24.9689C12.705 24.0898 14.4017 22.9408 15.3224 22.1076C16.1751 23.0698 17.2622 24.3449 18.0155 24.8282C19.0078 25.4636 20.1404 25.4517 20.4855 26.4356C20.759 27.2102 22.5757 27.5863 23.5382 27.7995C24.2368 27.9545 25.1405 27.8439 25.9926 27.671C26.7834 27.5082 27.1744 26.9124 27.1233 26.3093C27.1076 26.1281 27.2863 25.8422 27.2663 25.6734C27.2051 25.2025 27.3045 24.5695 27.0058 24.3721C26.5794 24.0881 25.7735 24.1667 25.2143 23.9877C21.9707 22.9415 19.9854 21.3301 18.0176 19.3682C19.1714 18.2112 22.0448 15.8172 23.7701 14.7508C24.628 14.2219 25.4797 13.6889 26.3964 13.1942C27.3454 12.6793 28.231 12.0893 29.2359 11.6545C31.1249 10.836 31.8721 10.0212 30.0812 8.90833C28.9563 8.22617 27.9606 8.08791 26.7609 8.35711L26.7607 8.35708Z" fill="white"/>
<defs>
<filter id="filter0_i_1_337" x="0.00012207" y="-0.00012207" width="36" height="42.4534" filterUnits="userSpaceOnUse" color-interpolation-filters="sRGB">
<feFlood flood-opacity="0" result="BackgroundImageFix"/>
<feBlend mode="normal" in="SourceGraphic" in2="BackgroundImageFix" result="shape"/>
<feColorMatrix in="SourceAlpha" type="matrix" values="0 0 0 0 0 0 0 0 0 0 0 0 0 0 0 0 0 0 127 0" result="hardAlpha"/>
<feOffset dy="4.81704"/>
<feGaussianBlur stdDeviation="2.40852"/>
<feComposite in2="hardAlpha" operator="arithmetic" k2="-1" k3="1"/>
<feColorMatrix type="matrix" values="0 0 0 0 1 0 0 0 0 1 0 0 0 0 1 0 0 0 0.25 0"/>
<feBlend mode="normal" in2="shape" result="effect1_innerShadow_1_337"/>
</filter>
<linearGradient id="paint0_linear_1_337" x1="6.28989" y1="-7.77612" x2="42.7983" y2="-2.16861" gradientUnits="userSpaceOnUse">
<stop stop-color="#FAE1A8"/>
<stop offset="1" stop-color="#EDCA80"/>
</linearGradient>
<linearGradient id="paint1_linear_1_337" x1="0.00012079" y1="-7.65437" x2="37.5983" y2="-4.22325" gradientUnits="userSpaceOnUse">
<stop stop-color="white" stop-opacity="0"/>
<stop offset="0.46875" stop-color="white"/>
<stop offset="1" stop-color="white" stop-opacity="0"/>
</linearGradient>
</defs>
</svg>
