<svg width="62" height="62" viewBox="0 0 62 62" fill="none" xmlns="http://www.w3.org/2000/svg">
<g filter="url(#filter0_i_1_240)">
<circle cx="31" cy="31" r="24" fill="url(#paint0_linear_1_240)"/>
<circle cx="31" cy="31" r="24" fill="url(#paint1_linear_1_240)" fill-opacity="0.3"/>
</g>
<circle cx="31" cy="31" r="27.5" stroke="white" stroke-width="7"/>
<path d="M29.9355 20.002C28.7289 20.002 27.748 20.9831 27.748 22.1894V32.1011L27.0936 30.7925C26.7185 30.0586 26.0925 29.3109 25.3945 29.1226C24.8053 28.9602 24.2658 29.1699 23.8418 29.4156C23.3043 29.7312 22.9529 30.1811 22.8165 30.6362C22.6604 31.2743 22.7916 31.9169 23.0802 32.6185C24.5084 36.1254 26.6935 40.2925 29.0762 43.0191C29.1344 43.086 29.2221 43.1261 29.3106 43.1265H37.748C37.8151 43.1243 37.8811 43.1002 37.9335 43.0581C38.7539 42.4503 39.4632 41.355 40.0525 40.0308C40.6417 38.7066 41.1153 37.1604 41.3318 35.6559C41.5565 34.0937 41.5803 32.6962 41.2538 31.5446C40.927 30.393 40.1959 29.5124 39.0369 29.3766C38.6321 29.3731 38.2799 29.4014 37.9627 29.5817C37.855 29.1034 37.6361 28.7067 37.3279 28.4878C36.9284 28.2045 36.4861 28.1214 36.1757 28.1264C35.7439 28.1336 35.3957 28.3636 35.0917 28.6831C34.965 28.3383 34.7893 28.0501 34.5448 27.8727C34.1517 27.5874 33.7044 27.5017 33.3729 27.5017C32.9337 27.5017 32.4912 27.6678 32.123 27.9412V22.1896C32.0958 20.7699 30.9516 19.9941 29.9356 20.0022L29.9355 20.002ZM29.9355 20.6269C30.8065 20.6269 31.4979 21.3183 31.4979 22.1894V28.7518C31.5003 28.8917 31.6082 29.023 31.7453 29.0522C31.8822 29.0814 32.0344 29.0055 32.0937 28.8786C32.2986 28.4529 32.905 28.1266 33.373 28.1266C33.5847 28.1266 33.9212 28.1874 34.1739 28.3707C34.4263 28.5541 34.6232 28.8366 34.6232 29.3765C34.621 29.5182 34.7276 29.654 34.8658 29.6856C35.0038 29.7172 35.159 29.6415 35.2189 29.5131C35.5021 28.9464 35.7684 28.7585 36.1954 28.7515C36.3568 28.7487 36.7031 28.8084 36.9669 28.9957C37.2306 29.1829 37.4355 29.4674 37.4355 30.0014C37.4375 30.2432 37.7871 30.3923 37.9628 30.2259C38.0234 30.1697 38.1899 30.091 38.3924 30.0502C38.595 30.0095 38.8264 30.0014 38.9978 30.0014C39.8636 30.1198 40.3659 30.7153 40.6481 31.7104C40.935 32.7216 40.9393 34.1138 40.7166 35.5579C40.4938 37.0023 40.0502 38.5092 39.486 39.7767C38.9365 41.0118 38.2582 41.9966 37.6112 42.5013H29.4668C27.1985 39.8674 25.0588 35.8038 23.6661 32.3842C23.3698 31.6217 23.3193 31.1343 23.4121 30.8021C23.5697 30.3661 23.8657 30.1128 24.1737 29.9428C24.5242 29.7429 24.8695 29.6291 25.2283 29.7279C25.9596 30.083 26.2264 30.5279 26.5368 31.0852L27.7769 33.5754C27.8368 33.7038 27.992 33.7795 28.13 33.7479C28.268 33.7163 28.3746 33.5805 28.3726 33.4388V22.1889C28.3726 21.3179 29.0641 20.6264 29.9351 20.6264L29.9355 20.6269Z" fill="white" stroke="white" stroke-width="0.3"/>
<path d="M22.1257 25.6252C22.2349 25.6254 22.3082 25.581 22.3502 25.5374L25.1628 22.725C25.284 22.6014 25.2757 22.3957 25.158 22.2806C25.0403 22.1655 24.8286 22.1679 24.7136 22.2856L22.4381 24.5608V17.8126C22.4381 17.6399 22.2981 17.5 22.1255 17.5C21.9529 17.5 21.8129 17.6399 21.8129 17.8126V24.5608L19.5374 22.2856C19.4223 22.1679 19.2107 22.1655 19.093 22.2806C18.9753 22.3957 18.9646 22.5964 19.0882 22.725L21.9008 25.5374C21.9749 25.6141 22.0226 25.6217 22.1253 25.6252H22.1257Z" fill="white" stroke="white" stroke-width="0.3"/>
<defs>
<filter id="filter0_i_1_240" x="0" y="0" width="62" height="68" filterUnits="userSpaceOnUse" color-interpolation-filters="sRGB">
<feFlood flood-opacity="0" result="BackgroundImageFix"/>
<feBlend mode="normal" in="SourceGraphic" in2="BackgroundImageFix" result="shape"/>
<feColorMatrix in="SourceAlpha" type="matrix" values="0 0 0 0 0 0 0 0 0 0 0 0 0 0 0 0 0 0 127 0" result="hardAlpha"/>
<feOffset dy="6"/>
<feGaussianBlur stdDeviation="13.5"/>
<feComposite in2="hardAlpha" operator="arithmetic" k2="-1" k3="1"/>
<feColorMatrix type="matrix" values="0 0 0 0 1 0 0 0 0 1 0 0 0 0 1 0 0 0 0.25 0"/>
<feBlend mode="normal" in2="shape" result="effect1_innerShadow_1_240"/>
</filter>
<linearGradient id="paint0_linear_1_240" x1="15.3864" y1="-2.91721" x2="63.9601" y2="4.8826" gradientUnits="userSpaceOnUse">
<stop stop-color="#FAE1A8"/>
<stop offset="1" stop-color="#EDCA80"/>
</linearGradient>
<linearGradient id="paint1_linear_1_240" x1="7" y1="-2.76194" x2="57.0924" y2="2.01716" gradientUnits="userSpaceOnUse">
<stop stop-color="white" stop-opacity="0"/>
<stop offset="0.46875" stop-color="white"/>
<stop offset="1" stop-color="white" stop-opacity="0"/>
</linearGradient>
</defs>
</svg>
