<svg width="41" height="21" viewBox="0 0 41 21" fill="none" xmlns="http://www.w3.org/2000/svg">
<g filter="url(#filter0_i_1_198)">
<rect width="41" height="20.5" rx="10.25" fill="white"/>
</g>
<path d="M8.03833 13.6438C7.58019 13.6438 7.16475 13.5623 6.79203 13.3992C6.4193 13.2284 6.09705 12.9993 5.82527 12.712C5.55349 12.4169 5.34383 12.0791 5.19629 11.6987C5.04875 11.3182 4.97498 10.9183 4.97498 10.4989C4.97498 10.0719 5.04875 9.66806 5.19629 9.28757C5.34383 8.90708 5.55349 8.57318 5.82527 8.28587C6.09705 7.99079 6.4193 7.76172 6.79203 7.59865C7.17252 7.42782 7.58796 7.3424 8.03833 7.3424C8.49648 7.3424 8.91191 7.42782 9.28464 7.59865C9.65737 7.76172 9.97962 7.99079 10.2514 8.28587C10.5309 8.57318 10.7445 8.90708 10.892 9.28757C11.0396 9.66806 11.1133 10.0719 11.1133 10.4989C11.1133 10.9183 11.0396 11.3182 10.892 11.6987C10.7445 12.0791 10.5348 12.4169 10.2631 12.712C9.99127 12.9993 9.66513 13.2284 9.28464 13.3992C8.91191 13.5623 8.49648 13.6438 8.03833 13.6438ZM6.02328 10.5106C6.02328 10.9299 6.11258 11.3104 6.29118 11.6521C6.47754 11.9937 6.72214 12.2655 7.02498 12.4674C7.32782 12.6615 7.66561 12.7586 8.03833 12.7586C8.41106 12.7586 8.74885 12.6576 9.05169 12.4558C9.36229 12.2539 9.6069 11.9821 9.78549 11.6404C9.97186 11.291 10.065 10.9066 10.065 10.4873C10.065 10.068 9.97186 9.68748 9.78549 9.34581C9.6069 9.00414 9.36229 8.73236 9.05169 8.53047C8.74885 8.32857 8.41106 8.22763 8.03833 8.22763C7.66561 8.22763 7.32782 8.33246 7.02498 8.54212C6.72214 8.74401 6.47754 9.01579 6.29118 9.35746C6.11258 9.69912 6.02328 10.0835 6.02328 10.5106ZM17.6318 13.5273H16.6068V10.1262C16.6068 9.4817 16.5058 9.01191 16.3039 8.71683C16.1098 8.41399 15.8109 8.26257 15.4071 8.26257C15.1275 8.26257 14.848 8.33246 14.5684 8.47223C14.2967 8.612 14.052 8.80225 13.8346 9.04297C13.625 9.27592 13.4735 9.5477 13.3804 9.85831V13.5273H12.3554V7.44723H13.2872V8.75178C13.4503 8.46446 13.6599 8.21598 13.9162 8.00632C14.1724 7.79666 14.4636 7.63359 14.7897 7.51712C15.1159 7.40064 15.4575 7.3424 15.8147 7.3424C16.1642 7.3424 16.4554 7.4084 16.6883 7.54041C16.929 7.66465 17.1154 7.84325 17.2474 8.07621C17.3872 8.3014 17.4842 8.56929 17.5386 8.8799C17.6007 9.19051 17.6318 9.52829 17.6318 9.89325V13.5273Z" fill="#DADADA"/>
<circle cx="30.75" cy="10.2498" r="9.11111" fill="url(#paint0_linear_1_198)"/>
<circle cx="30.75" cy="10.2498" r="9.11111" fill="url(#paint1_radial_1_198)" fill-opacity="0.42"/>
<path d="M31 5C28.1046 5 25.75 7.35458 25.75 10.25C25.75 13.1454 28.1046 15.5 31 15.5C33.8954 15.5 36.25 13.1454 36.25 10.25C36.25 7.35458 33.8954 5 31 5ZM31 5.70004C33.5171 5.70004 35.55 7.733 35.55 10.25C35.55 12.7671 33.517 14.8 31 14.8C28.483 14.8 26.45 12.7671 26.45 10.25C26.45 7.733 28.483 5.70004 31 5.70004ZM30.9963 6.74269C30.9841 6.74334 30.972 6.74448 30.9599 6.74635C30.8735 6.75636 30.794 6.79803 30.7367 6.86337C30.6794 6.9288 30.6485 7.01311 30.65 7.10002V7.59221C30.3531 7.63501 30.0698 7.73381 29.8297 7.89844C29.4963 8.12704 29.25 8.51156 29.25 8.96662C29.25 9.43333 29.521 9.80142 29.8407 10.0203C30.1603 10.2392 30.5298 10.3635 30.8761 10.4943C31.2223 10.625 31.5439 10.7602 31.7474 10.9208C31.9509 11.0815 32.05 11.2294 32.05 11.5334C32.05 11.7575 31.9612 11.8989 31.7765 12.0255C31.592 12.1521 31.3044 12.2333 31 12.2333C30.1439 12.2333 29.9208 11.6245 29.9208 11.6245C29.8831 11.5394 29.8131 11.4727 29.7263 11.4392C29.6395 11.4057 29.5429 11.4081 29.4578 11.4458C29.3727 11.4835 29.3061 11.5535 29.2725 11.6403C29.2391 11.7271 29.2414 11.8237 29.2791 11.9088C29.2791 11.9088 29.6817 12.7325 30.65 12.9006V13.4C30.6487 13.4937 30.685 13.584 30.7507 13.6507C30.8165 13.7174 30.9063 13.755 31 13.755C31.0937 13.755 31.1835 13.7175 31.2493 13.6507C31.315 13.584 31.3513 13.4937 31.35 13.4V12.9078C31.6469 12.865 31.9302 12.7662 32.1703 12.6016C32.5037 12.373 32.75 11.9884 32.75 11.5334C32.75 11.0277 32.4991 10.6241 32.1776 10.3703C31.8561 10.1166 31.4777 9.9752 31.1239 9.84166C30.7702 9.70811 30.4398 9.58132 30.2344 9.44061C30.029 9.29999 29.95 9.19997 29.95 8.96666C29.95 8.74253 30.0388 8.60109 30.2235 8.47447C30.408 8.34792 30.6956 8.2667 31 8.2667C31.8561 8.2667 32.0792 8.87552 32.0792 8.87552C32.1169 8.96064 32.1869 9.02729 32.2737 9.06082C32.3605 9.09427 32.4571 9.09191 32.5422 9.05423C32.6273 9.01655 32.6939 8.94656 32.7275 8.85973C32.7609 8.7729 32.7586 8.6763 32.7209 8.59117C32.7209 8.59117 32.3183 7.76752 31.35 7.59946V7.10002C31.352 7.00529 31.3154 6.91382 31.2488 6.84652C31.1822 6.77914 31.0911 6.7417 30.9963 6.74268L30.9963 6.74269Z" fill="white"/>
<defs>
<filter id="filter0_i_1_198" x="0" y="0" width="41" height="21.6389" filterUnits="userSpaceOnUse" color-interpolation-filters="sRGB">
<feFlood flood-opacity="0" result="BackgroundImageFix"/>
<feBlend mode="normal" in="SourceGraphic" in2="BackgroundImageFix" result="shape"/>
<feColorMatrix in="SourceAlpha" type="matrix" values="0 0 0 0 0 0 0 0 0 0 0 0 0 0 0 0 0 0 127 0" result="hardAlpha"/>
<feOffset dy="1.13889"/>
<feGaussianBlur stdDeviation="1.13889"/>
<feComposite in2="hardAlpha" operator="arithmetic" k2="-1" k3="1"/>
<feColorMatrix type="matrix" values="0 0 0 0 0.145833 0 0 0 0 0.145226 0 0 0 0 0.145226 0 0 0 0.25 0"/>
<feBlend mode="normal" in2="shape" result="effect1_innerShadow_1_198"/>
</filter>
<linearGradient id="paint0_linear_1_198" x1="23.1488" y1="-0.926069" x2="42.028" y2="1.14609" gradientUnits="userSpaceOnUse">
<stop stop-color="#A281EB"/>
<stop offset="1" stop-color="#6E3BE0"/>
</linearGradient>
<radialGradient id="paint1_radial_1_198" cx="0" cy="0" r="1" gradientUnits="userSpaceOnUse" gradientTransform="translate(30.75 -0.000217495) rotate(90) scale(10.25)">
<stop stop-color="white"/>
<stop offset="1" stop-color="white" stop-opacity="0"/>
</radialGradient>
</defs>
</svg>
