<svg width="41" height="21" viewBox="0 0 41 21" fill="none" xmlns="http://www.w3.org/2000/svg">
<g filter="url(#filter0_i_1_214)">
<rect width="41" height="20.5" rx="10.25" fill="white"/>
</g>
<path d="M8.03833 13.6438C7.58019 13.6438 7.16475 13.5623 6.79203 13.3992C6.4193 13.2284 6.09705 12.9993 5.82527 12.712C5.55349 12.4169 5.34383 12.0791 5.19629 11.6987C5.04875 11.3182 4.97498 10.9183 4.97498 10.4989C4.97498 10.0719 5.04875 9.66806 5.19629 9.28757C5.34383 8.90708 5.55349 8.57318 5.82527 8.28587C6.09705 7.99079 6.4193 7.76172 6.79203 7.59865C7.17252 7.42782 7.58796 7.3424 8.03833 7.3424C8.49648 7.3424 8.91191 7.42782 9.28464 7.59865C9.65737 7.76172 9.97962 7.99079 10.2514 8.28587C10.5309 8.57318 10.7445 8.90708 10.892 9.28757C11.0396 9.66806 11.1133 10.0719 11.1133 10.4989C11.1133 10.9183 11.0396 11.3182 10.892 11.6987C10.7445 12.0791 10.5348 12.4169 10.2631 12.712C9.99127 12.9993 9.66513 13.2284 9.28464 13.3992C8.91191 13.5623 8.49648 13.6438 8.03833 13.6438ZM6.02328 10.5106C6.02328 10.9299 6.11258 11.3104 6.29118 11.6521C6.47754 11.9937 6.72214 12.2655 7.02498 12.4674C7.32782 12.6615 7.66561 12.7586 8.03833 12.7586C8.41106 12.7586 8.74885 12.6576 9.05169 12.4558C9.36229 12.2539 9.6069 11.9821 9.78549 11.6404C9.97186 11.291 10.065 10.9066 10.065 10.4873C10.065 10.068 9.97186 9.68748 9.78549 9.34581C9.6069 9.00414 9.36229 8.73236 9.05169 8.53047C8.74885 8.32857 8.41106 8.22763 8.03833 8.22763C7.66561 8.22763 7.32782 8.33246 7.02498 8.54212C6.72214 8.74401 6.47754 9.01579 6.29118 9.35746C6.11258 9.69912 6.02328 10.0835 6.02328 10.5106ZM17.6318 13.5273H16.6068V10.1262C16.6068 9.4817 16.5058 9.01191 16.3039 8.71683C16.1098 8.41399 15.8109 8.26257 15.4071 8.26257C15.1275 8.26257 14.848 8.33246 14.5684 8.47223C14.2967 8.612 14.052 8.80225 13.8346 9.04297C13.625 9.27592 13.4735 9.5477 13.3804 9.85831V13.5273H12.3554V7.44723H13.2872V8.75178C13.4503 8.46446 13.6599 8.21598 13.9162 8.00632C14.1724 7.79666 14.4636 7.63359 14.7897 7.51712C15.1159 7.40064 15.4575 7.3424 15.8147 7.3424C16.1642 7.3424 16.4554 7.4084 16.6883 7.54041C16.929 7.66465 17.1154 7.84325 17.2474 8.07621C17.3872 8.3014 17.4842 8.56929 17.5386 8.8799C17.6007 9.19051 17.6318 9.52829 17.6318 9.89325V13.5273Z" fill="#DADADA"/>
<circle cx="30.75" cy="10.2498" r="9.11111" fill="url(#paint0_linear_1_214)"/>
<circle cx="30.75" cy="10.2498" r="9.11111" fill="url(#paint1_radial_1_214)" fill-opacity="0.42"/>
<path d="M33.3801 10.1134C33.9034 9.77332 34.3001 9.24669 34.4534 8.61001C34.5068 8.42332 34.5334 8.21671 34.5334 7.99669C34.5334 7.91336 34.5334 7.84334 34.5234 7.78673C34.4734 7.18338 34.2101 6.61671 33.7734 6.19008C33.2967 5.72006 32.6667 5.46338 32.0001 5.46338C31.4134 5.46338 30.8568 5.66673 30.4068 6.0334C30.2734 6.01338 30.1401 5.99672 30.0001 5.99672C29.3334 5.99672 28.7034 6.25342 28.2267 6.72334C27.7934 7.14997 27.5267 7.71664 27.4801 8.29671C27.4667 8.3767 27.4667 8.44671 27.4667 8.53005C27.4667 8.75007 27.4934 8.95668 27.5434 9.1334C27.7001 9.78005 28.0967 10.3068 28.62 10.6467C27.0934 11.21 26 12.6766 26 14.3968C26 14.5801 26.15 14.7301 26.3333 14.7301H33.6667C33.85 14.7301 34 14.5801 34 14.3968C34 14.3301 33.9966 14.2635 33.9933 14.1968H35.6667C35.85 14.1968 36 14.0468 36 13.8635C36 12.1435 34.9067 10.6768 33.38 10.1134L33.3801 10.1134ZM32.0001 6.13012C32.4934 6.13012 32.9568 6.32015 33.3068 6.66345C33.6268 6.97677 33.8234 7.39343 33.8601 7.86345C33.8668 7.9101 33.8668 7.95014 33.8668 7.99344C33.8668 8.15014 33.8468 8.30014 33.8101 8.43673C33.6201 9.22342 32.9534 9.78673 32.1568 9.8534C32.1601 9.8467 32.1635 9.83673 32.1701 9.83003C32.2134 9.76002 32.2467 9.68338 32.2834 9.61002C32.3001 9.56999 32.3234 9.53338 32.3401 9.4967C32.3868 9.38003 32.4268 9.26336 32.4568 9.14335C32.5101 8.95666 32.5368 8.75005 32.5368 8.53003C32.5368 8.4467 32.5368 8.37668 32.5268 8.32007C32.4768 7.71672 32.2135 7.15005 31.7768 6.72007C31.6935 6.63674 31.6034 6.5601 31.5101 6.49344C31.4968 6.48347 31.4801 6.47343 31.4635 6.46346C31.3835 6.40676 31.3002 6.35349 31.2168 6.30676C31.4568 6.19009 31.7235 6.13013 32.0001 6.13013L32.0001 6.13012ZM28.1334 8.53012C28.1334 8.48347 28.1334 8.44344 28.1434 8.37342C28.1767 7.93013 28.3734 7.51346 28.6934 7.19679C29.0434 6.8535 29.5067 6.66346 30.0001 6.66346C30.1467 6.66346 30.2901 6.68013 30.4301 6.71681C30.7534 6.79017 31.0567 6.95685 31.3067 7.20014C31.6267 7.51346 31.8234 7.93012 31.86 8.40014C31.8667 8.44345 31.8667 8.48682 31.8667 8.53013C31.8667 8.68682 31.8467 8.83683 31.81 8.97342C31.7234 9.32342 31.54 9.64344 31.2767 9.89344C31.24 9.92677 31.2001 9.96011 31.16 9.99344C30.8467 10.2401 30.4767 10.3801 30.0667 10.3968H30.0201C29.1601 10.4135 28.3935 9.82016 28.1868 8.96346C28.1534 8.83682 28.1334 8.68683 28.1334 8.53013L28.1334 8.53012ZM26.6834 14.0634C26.8501 12.3801 28.2734 11.0635 30 11.0635H30.0833C30.2867 11.0701 30.4867 11.0934 30.68 11.1335C32.0333 11.4134 33.0899 12.5068 33.2967 13.9167C33.3034 13.9667 33.31 14.0167 33.3167 14.0667H26.6834L26.6834 14.0634ZM33.9034 13.5301C33.9001 13.5201 33.8967 13.5134 33.8967 13.5035C33.8634 13.3535 33.8201 13.2102 33.7701 13.0668C33.7601 13.0335 33.7467 13.0035 33.7334 12.9735C33.6901 12.8602 33.6434 12.7469 33.5901 12.6402C33.5734 12.6068 33.5568 12.5701 33.5401 12.5368C33.4734 12.4068 33.4001 12.2801 33.3167 12.1602C33.3034 12.1402 33.2867 12.1202 33.2701 12.0969C33.2 11.9969 33.1268 11.9002 33.0467 11.8068C33.0167 11.7735 32.99 11.7402 32.96 11.7068C32.8733 11.6135 32.7866 11.5235 32.69 11.4368C32.6733 11.4201 32.6567 11.4035 32.6366 11.3868C32.5366 11.2968 32.4299 11.2168 32.32 11.1368C32.2799 11.1068 32.2366 11.0801 32.1933 11.0501C32.1067 10.9934 32.0167 10.9402 31.9267 10.8902C31.8866 10.8701 31.85 10.8469 31.81 10.8268C31.69 10.7669 31.5634 10.7102 31.4366 10.6602C31.42 10.6535 31.4033 10.6435 31.3866 10.6368C31.4233 10.6134 31.46 10.5868 31.4966 10.5602C31.67 10.5434 31.8334 10.5301 32 10.5301C33.7267 10.5301 35.1501 11.8468 35.3166 13.5301L33.9034 13.5301Z" fill="white"/>
<defs>
<filter id="filter0_i_1_214" x="0" y="0" width="41" height="21.6389" filterUnits="userSpaceOnUse" color-interpolation-filters="sRGB">
<feFlood flood-opacity="0" result="BackgroundImageFix"/>
<feBlend mode="normal" in="SourceGraphic" in2="BackgroundImageFix" result="shape"/>
<feColorMatrix in="SourceAlpha" type="matrix" values="0 0 0 0 0 0 0 0 0 0 0 0 0 0 0 0 0 0 127 0" result="hardAlpha"/>
<feOffset dy="1.13889"/>
<feGaussianBlur stdDeviation="1.13889"/>
<feComposite in2="hardAlpha" operator="arithmetic" k2="-1" k3="1"/>
<feColorMatrix type="matrix" values="0 0 0 0 0.145833 0 0 0 0 0.145226 0 0 0 0 0.145226 0 0 0 0.25 0"/>
<feBlend mode="normal" in2="shape" result="effect1_innerShadow_1_214"/>
</filter>
<linearGradient id="paint0_linear_1_214" x1="23.1488" y1="-0.926069" x2="42.028" y2="1.14609" gradientUnits="userSpaceOnUse">
<stop stop-color="#A281EB"/>
<stop offset="1" stop-color="#6E3BE0"/>
</linearGradient>
<radialGradient id="paint1_radial_1_214" cx="0" cy="0" r="1" gradientUnits="userSpaceOnUse" gradientTransform="translate(30.75 -0.000217495) rotate(90) scale(10.25)">
<stop stop-color="white"/>
<stop offset="1" stop-color="white" stop-opacity="0"/>
</radialGradient>
</defs>
</svg>
