<svg width="41" height="21" viewBox="0 0 41 21" fill="none" xmlns="http://www.w3.org/2000/svg">
<g filter="url(#filter0_i_1_206)">
<rect width="41" height="20.5" rx="10.25" fill="white"/>
</g>
<path d="M8.03833 13.6438C7.58019 13.6438 7.16475 13.5623 6.79203 13.3992C6.4193 13.2284 6.09705 12.9993 5.82527 12.712C5.55349 12.4169 5.34383 12.0791 5.19629 11.6987C5.04875 11.3182 4.97498 10.9183 4.97498 10.4989C4.97498 10.0719 5.04875 9.66806 5.19629 9.28757C5.34383 8.90708 5.55349 8.57318 5.82527 8.28587C6.09705 7.99079 6.4193 7.76172 6.79203 7.59865C7.17252 7.42782 7.58796 7.3424 8.03833 7.3424C8.49648 7.3424 8.91191 7.42782 9.28464 7.59865C9.65737 7.76172 9.97962 7.99079 10.2514 8.28587C10.5309 8.57318 10.7445 8.90708 10.892 9.28757C11.0396 9.66806 11.1133 10.0719 11.1133 10.4989C11.1133 10.9183 11.0396 11.3182 10.892 11.6987C10.7445 12.0791 10.5348 12.4169 10.2631 12.712C9.99127 12.9993 9.66513 13.2284 9.28464 13.3992C8.91191 13.5623 8.49648 13.6438 8.03833 13.6438ZM6.02328 10.5106C6.02328 10.9299 6.11258 11.3104 6.29118 11.6521C6.47754 11.9937 6.72214 12.2655 7.02498 12.4674C7.32782 12.6615 7.66561 12.7586 8.03833 12.7586C8.41106 12.7586 8.74885 12.6576 9.05169 12.4558C9.36229 12.2539 9.6069 11.9821 9.78549 11.6404C9.97186 11.291 10.065 10.9066 10.065 10.4873C10.065 10.068 9.97186 9.68748 9.78549 9.34581C9.6069 9.00414 9.36229 8.73236 9.05169 8.53047C8.74885 8.32857 8.41106 8.22763 8.03833 8.22763C7.66561 8.22763 7.32782 8.33246 7.02498 8.54212C6.72214 8.74401 6.47754 9.01579 6.29118 9.35746C6.11258 9.69912 6.02328 10.0835 6.02328 10.5106ZM17.6318 13.5273H16.6068V10.1262C16.6068 9.4817 16.5058 9.01191 16.3039 8.71683C16.1098 8.41399 15.8109 8.26257 15.4071 8.26257C15.1275 8.26257 14.848 8.33246 14.5684 8.47223C14.2967 8.612 14.052 8.80225 13.8346 9.04297C13.625 9.27592 13.4735 9.5477 13.3804 9.85831V13.5273H12.3554V7.44723H13.2872V8.75178C13.4503 8.46446 13.6599 8.21598 13.9162 8.00632C14.1724 7.79666 14.4636 7.63359 14.7897 7.51712C15.1159 7.40064 15.4575 7.3424 15.8147 7.3424C16.1642 7.3424 16.4554 7.4084 16.6883 7.54041C16.929 7.66465 17.1154 7.84325 17.2474 8.07621C17.3872 8.3014 17.4842 8.56929 17.5386 8.8799C17.6007 9.19051 17.6318 9.52829 17.6318 9.89325V13.5273Z" fill="#DADADA"/>
<circle cx="30.75" cy="10.2498" r="9.11111" fill="url(#paint0_linear_1_206)"/>
<circle cx="30.75" cy="10.2498" r="9.11111" fill="url(#paint1_radial_1_206)" fill-opacity="0.42"/>
<path d="M30.7012 5C32.0789 5 33.1959 6.0462 33.1959 7.33657C33.1959 8.62694 32.0789 9.67313 30.7012 9.67313C29.3235 9.67313 28.2065 8.62694 28.2065 7.33657C28.2065 6.0462 29.3235 5 30.7012 5ZM32.191 11.3491L30.9631 12.4491L32.191 13.5492L31.8312 13.9016L30.21 12.4491L31.8312 10.9967L32.191 11.3491ZM30.9958 11.3491L29.7679 12.4491L30.9958 13.5492L30.636 13.9016L29.0149 12.4491L30.636 10.9967L30.9958 11.3491ZM30.0143 9.80047H31.3881C33.3751 9.80047 35 11.3223 35 13.1837V15H27.0049C26.6736 15 26.4026 14.746 26.4026 14.4359V13.1837C26.4026 11.3225 28.0274 9.80054 30.0145 9.80054L30.0143 9.80047ZM31.3881 10.2906H30.0143C28.3162 10.2906 26.9258 11.593 26.9258 13.1836V14.4357C26.9258 14.4766 26.9615 14.5096 27.0049 14.5096H34.4768V13.1836C34.4768 11.5929 33.0863 10.2906 31.3883 10.2906L31.3881 10.2906ZM30.7012 5.49028C29.6126 5.49028 28.73 6.31692 28.73 7.3366C28.73 8.35628 29.6125 9.18293 30.7012 9.18293C31.7899 9.18293 32.6725 8.35628 32.6725 7.3366C32.6725 6.31692 31.7899 5.49028 30.7012 5.49028Z" fill="white"/>
<defs>
<filter id="filter0_i_1_206" x="0" y="0" width="41" height="21.6389" filterUnits="userSpaceOnUse" color-interpolation-filters="sRGB">
<feFlood flood-opacity="0" result="BackgroundImageFix"/>
<feBlend mode="normal" in="SourceGraphic" in2="BackgroundImageFix" result="shape"/>
<feColorMatrix in="SourceAlpha" type="matrix" values="0 0 0 0 0 0 0 0 0 0 0 0 0 0 0 0 0 0 127 0" result="hardAlpha"/>
<feOffset dy="1.13889"/>
<feGaussianBlur stdDeviation="1.13889"/>
<feComposite in2="hardAlpha" operator="arithmetic" k2="-1" k3="1"/>
<feColorMatrix type="matrix" values="0 0 0 0 0.145833 0 0 0 0 0.145226 0 0 0 0 0.145226 0 0 0 0.25 0"/>
<feBlend mode="normal" in2="shape" result="effect1_innerShadow_1_206"/>
</filter>
<linearGradient id="paint0_linear_1_206" x1="23.1488" y1="-0.926069" x2="42.028" y2="1.14609" gradientUnits="userSpaceOnUse">
<stop stop-color="#A281EB"/>
<stop offset="1" stop-color="#6E3BE0"/>
</linearGradient>
<radialGradient id="paint1_radial_1_206" cx="0" cy="0" r="1" gradientUnits="userSpaceOnUse" gradientTransform="translate(30.75 -0.000217495) rotate(90) scale(10.25)">
<stop stop-color="white"/>
<stop offset="1" stop-color="white" stop-opacity="0"/>
</radialGradient>
</defs>
</svg>
