<svg width="41" height="21" viewBox="0 0 41 21" fill="none" xmlns="http://www.w3.org/2000/svg">
<g filter="url(#filter0_i_1_231)">
<rect width="41" height="20.5" rx="10.25" fill="white"/>
</g>
<path d="M8.03833 13.6438C7.58019 13.6438 7.16475 13.5623 6.79203 13.3992C6.4193 13.2284 6.09705 12.9993 5.82527 12.712C5.55349 12.4169 5.34383 12.0791 5.19629 11.6987C5.04875 11.3182 4.97498 10.9183 4.97498 10.4989C4.97498 10.0719 5.04875 9.66806 5.19629 9.28757C5.34383 8.90708 5.55349 8.57318 5.82527 8.28587C6.09705 7.99079 6.4193 7.76172 6.79203 7.59865C7.17252 7.42782 7.58796 7.3424 8.03833 7.3424C8.49648 7.3424 8.91191 7.42782 9.28464 7.59865C9.65737 7.76172 9.97962 7.99079 10.2514 8.28587C10.5309 8.57318 10.7445 8.90708 10.892 9.28757C11.0396 9.66806 11.1133 10.0719 11.1133 10.4989C11.1133 10.9183 11.0396 11.3182 10.892 11.6987C10.7445 12.0791 10.5348 12.4169 10.2631 12.712C9.99127 12.9993 9.66513 13.2284 9.28464 13.3992C8.91191 13.5623 8.49648 13.6438 8.03833 13.6438ZM6.02328 10.5106C6.02328 10.9299 6.11258 11.3104 6.29118 11.6521C6.47754 11.9937 6.72214 12.2655 7.02498 12.4674C7.32782 12.6615 7.66561 12.7586 8.03833 12.7586C8.41106 12.7586 8.74885 12.6576 9.05169 12.4558C9.36229 12.2539 9.6069 11.9821 9.78549 11.6404C9.97186 11.291 10.065 10.9066 10.065 10.4873C10.065 10.068 9.97186 9.68748 9.78549 9.34581C9.6069 9.00414 9.36229 8.73236 9.05169 8.53047C8.74885 8.32857 8.41106 8.22763 8.03833 8.22763C7.66561 8.22763 7.32782 8.33246 7.02498 8.54212C6.72214 8.74401 6.47754 9.01579 6.29118 9.35746C6.11258 9.69912 6.02328 10.0835 6.02328 10.5106ZM17.6318 13.5273H16.6068V10.1262C16.6068 9.4817 16.5058 9.01191 16.3039 8.71683C16.1098 8.41399 15.8109 8.26257 15.4071 8.26257C15.1275 8.26257 14.848 8.33246 14.5684 8.47223C14.2967 8.612 14.052 8.80225 13.8346 9.04297C13.625 9.27592 13.4735 9.5477 13.3804 9.85831V13.5273H12.3554V7.44723H13.2872V8.75178C13.4503 8.46446 13.6599 8.21598 13.9162 8.00632C14.1724 7.79666 14.4636 7.63359 14.7897 7.51712C15.1159 7.40064 15.4575 7.3424 15.8147 7.3424C16.1642 7.3424 16.4554 7.4084 16.6883 7.54041C16.929 7.66465 17.1154 7.84325 17.2474 8.07621C17.3872 8.3014 17.4842 8.56929 17.5386 8.8799C17.6007 9.19051 17.6318 9.52829 17.6318 9.89325V13.5273Z" fill="#DADADA"/>
<circle cx="30.75" cy="10.2498" r="9.11111" fill="url(#paint0_linear_1_231)"/>
<circle cx="30.75" cy="10.2498" r="9.11111" fill="url(#paint1_radial_1_231)" fill-opacity="0.42"/>
<path d="M28.1644 5C27.353 5 26.5436 5.31303 25.9259 5.93372C24.6906 7.17524 24.6921 9.18533 25.9259 10.4277L30.7056 15.2456C30.7824 15.3227 30.8868 15.366 30.9955 15.366C31.1043 15.366 31.2087 15.3227 31.2855 15.2456C32.8811 13.642 34.4782 12.0398 36.0735 10.4362C37.3088 9.19467 37.3088 7.17945 36.0735 5.93811C34.8382 4.69677 32.8277 4.6966 31.5922 5.93811L31.0038 6.53503L30.4069 5.93382C29.7892 5.31303 28.9755 5.0001 28.1642 5.0001L28.1644 5ZM28.1644 5.8101C28.763 5.8101 29.3645 6.04432 29.8272 6.50932L30.714 7.40041C30.7908 7.4775 30.8952 7.5208 31.004 7.5208C31.1128 7.5208 31.2171 7.4775 31.2939 7.40041L32.1722 6.51361C33.0976 5.58349 34.5682 5.58349 35.4935 6.51361C36.4188 7.44373 36.4189 8.9262 35.4935 9.85634C33.9943 11.3631 32.4945 12.8733 30.9954 14.3802L26.5059 9.8522C25.581 8.92084 25.5804 7.43961 26.5059 6.50947C26.9686 6.04446 27.5658 5.81025 28.1644 5.81025L28.1644 5.8101Z" fill="white"/>
<defs>
<filter id="filter0_i_1_231" x="0" y="0" width="41" height="21.6389" filterUnits="userSpaceOnUse" color-interpolation-filters="sRGB">
<feFlood flood-opacity="0" result="BackgroundImageFix"/>
<feBlend mode="normal" in="SourceGraphic" in2="BackgroundImageFix" result="shape"/>
<feColorMatrix in="SourceAlpha" type="matrix" values="0 0 0 0 0 0 0 0 0 0 0 0 0 0 0 0 0 0 127 0" result="hardAlpha"/>
<feOffset dy="1.13889"/>
<feGaussianBlur stdDeviation="1.13889"/>
<feComposite in2="hardAlpha" operator="arithmetic" k2="-1" k3="1"/>
<feColorMatrix type="matrix" values="0 0 0 0 0.145833 0 0 0 0 0.145226 0 0 0 0 0.145226 0 0 0 0.25 0"/>
<feBlend mode="normal" in2="shape" result="effect1_innerShadow_1_231"/>
</filter>
<linearGradient id="paint0_linear_1_231" x1="23.1488" y1="-0.926069" x2="42.028" y2="1.14609" gradientUnits="userSpaceOnUse">
<stop stop-color="#A281EB"/>
<stop offset="1" stop-color="#6E3BE0"/>
</linearGradient>
<radialGradient id="paint1_radial_1_231" cx="0" cy="0" r="1" gradientUnits="userSpaceOnUse" gradientTransform="translate(30.75 -0.000217495) rotate(90) scale(10.25)">
<stop stop-color="white"/>
<stop offset="1" stop-color="white" stop-opacity="0"/>
</radialGradient>
</defs>
</svg>
