<svg width="41" height="22" viewBox="0 0 41 22" fill="none" xmlns="http://www.w3.org/2000/svg">
<g filter="url(#filter0_i_1_189)">
<rect y="0.75" width="41" height="20.5" rx="10.25" fill="white"/>
</g>
<path d="M8.03821 14.3941C7.58007 14.3941 7.16463 14.3125 6.79191 14.1495C6.41918 13.9786 6.09692 13.7496 5.82514 13.4622C5.55336 13.1672 5.3437 12.8294 5.19617 12.4489C5.04863 12.0684 4.97486 11.6685 4.97486 11.2492C4.97486 10.8221 5.04863 10.4183 5.19617 10.0378C5.3437 9.65732 5.55336 9.32342 5.82514 9.03611C6.09692 8.74103 6.41918 8.51196 6.79191 8.34889C7.1724 8.17806 7.58783 8.09264 8.03821 8.09264C8.49636 8.09264 8.91179 8.17806 9.28452 8.34889C9.65725 8.51196 9.9795 8.74103 10.2513 9.03611C10.5308 9.32342 10.7444 9.65732 10.8919 10.0378C11.0394 10.4183 11.1132 10.8221 11.1132 11.2492C11.1132 11.6685 11.0394 12.0684 10.8919 12.4489C10.7444 12.8294 10.5347 13.1672 10.2629 13.4622C9.99115 13.7496 9.66501 13.9786 9.28452 14.1495C8.91179 14.3125 8.49636 14.3941 8.03821 14.3941ZM6.02316 11.2608C6.02316 11.6801 6.11245 12.0606 6.29105 12.4023C6.47742 12.744 6.72202 13.0158 7.02486 13.2176C7.3277 13.4118 7.66549 13.5088 8.03821 13.5088C8.41094 13.5088 8.74872 13.4079 9.05156 13.206C9.36217 13.0041 9.60677 12.7323 9.78537 12.3907C9.97174 12.0412 10.0649 11.6568 10.0649 11.2375C10.0649 10.8182 9.97174 10.4377 9.78537 10.0961C9.60677 9.75439 9.36217 9.48261 9.05156 9.28071C8.74872 9.07882 8.41094 8.97787 8.03821 8.97787C7.66549 8.97787 7.3277 9.0827 7.02486 9.29236C6.72202 9.49425 6.47742 9.76603 6.29105 10.1077C6.11245 10.4494 6.02316 10.8337 6.02316 11.2608ZM17.6317 14.2776H16.6067V10.8765C16.6067 10.2319 16.5057 9.76215 16.3038 9.46708C16.1097 9.16424 15.8107 9.01282 15.4069 9.01282C15.1274 9.01282 14.8479 9.0827 14.5683 9.22247C14.2965 9.36225 14.0519 9.55249 13.8345 9.79321C13.6248 10.0262 13.4734 10.2979 13.3802 10.6086V14.2776H12.3552V8.19747H13.2871V9.50202C13.4501 9.21471 13.6598 8.96622 13.916 8.75656C14.1723 8.54691 14.4635 8.38384 14.7896 8.26736C15.1158 8.15088 15.4574 8.09264 15.8146 8.09264C16.164 8.09264 16.4552 8.15865 16.6882 8.29066C16.9289 8.4149 17.1153 8.5935 17.2473 8.82645C17.3871 9.05164 17.4841 9.31954 17.5385 9.63014C17.6006 9.94075 17.6317 10.2785 17.6317 10.6435V14.2776Z" fill="#DADADA"/>
<circle cx="30.75" cy="11" r="9.11111" fill="url(#paint0_linear_1_189)"/>
<circle cx="30.75" cy="11" r="9.11111" fill="url(#paint1_radial_1_189)" fill-opacity="0.42"/>
<path d="M34.8965 9.44435H31.5975L32.3941 5.46165C32.4102 5.38111 32.3486 5.30591 32.2665 5.30591L28.8172 5.30602C28.718 5.30602 28.6324 5.37611 28.613 5.47338L27.1997 12.5403C27.1663 12.7073 27.294 12.8631 27.4643 12.8631H30.9106L30.0107 17.363C29.9723 17.5546 30.1251 17.6869 30.2802 17.6869C30.3655 17.6869 30.4515 17.6469 30.5067 17.5547L35.1276 9.85292C35.2357 9.67301 35.1061 9.44418 34.8962 9.44418L34.8965 9.44435ZM31.2179 14.9784L31.6128 13.0036L31.7841 12.1473H28.0085L29.2336 6.02183H31.552L30.8956 9.30386L30.7242 10.1602H34.1086L31.2179 14.9784Z" fill="white"/>
<defs>
<filter id="filter0_i_1_189" x="0" y="0.75" width="41" height="21.6389" filterUnits="userSpaceOnUse" color-interpolation-filters="sRGB">
<feFlood flood-opacity="0" result="BackgroundImageFix"/>
<feBlend mode="normal" in="SourceGraphic" in2="BackgroundImageFix" result="shape"/>
<feColorMatrix in="SourceAlpha" type="matrix" values="0 0 0 0 0 0 0 0 0 0 0 0 0 0 0 0 0 0 127 0" result="hardAlpha"/>
<feOffset dy="1.13889"/>
<feGaussianBlur stdDeviation="1.13889"/>
<feComposite in2="hardAlpha" operator="arithmetic" k2="-1" k3="1"/>
<feColorMatrix type="matrix" values="0 0 0 0 0.145833 0 0 0 0 0.145226 0 0 0 0 0.145226 0 0 0 0.25 0"/>
<feBlend mode="normal" in2="shape" result="effect1_innerShadow_1_189"/>
</filter>
<linearGradient id="paint0_linear_1_189" x1="23.1488" y1="-0.175825" x2="42.028" y2="1.89633" gradientUnits="userSpaceOnUse">
<stop stop-color="#A281EB"/>
<stop offset="1" stop-color="#6E3BE0"/>
</linearGradient>
<radialGradient id="paint1_radial_1_189" cx="0" cy="0" r="1" gradientUnits="userSpaceOnUse" gradientTransform="translate(30.75 0.750027) rotate(90) scale(10.25)">
<stop stop-color="white"/>
<stop offset="1" stop-color="white" stop-opacity="0"/>
</radialGradient>
</defs>
</svg>
