<svg width="41" height="21" viewBox="0 0 41 21" fill="none" xmlns="http://www.w3.org/2000/svg">
<g filter="url(#filter0_i_1_221)">
<rect width="41" height="20.5" rx="10.25" fill="white"/>
</g>
<path d="M8.03833 13.6438C7.58019 13.6438 7.16475 13.5623 6.79203 13.3992C6.4193 13.2284 6.09705 12.9993 5.82527 12.712C5.55349 12.4169 5.34383 12.0791 5.19629 11.6987C5.04875 11.3182 4.97498 10.9183 4.97498 10.4989C4.97498 10.0719 5.04875 9.66806 5.19629 9.28757C5.34383 8.90708 5.55349 8.57318 5.82527 8.28587C6.09705 7.99079 6.4193 7.76172 6.79203 7.59865C7.17252 7.42782 7.58796 7.3424 8.03833 7.3424C8.49648 7.3424 8.91191 7.42782 9.28464 7.59865C9.65737 7.76172 9.97962 7.99079 10.2514 8.28587C10.5309 8.57318 10.7445 8.90708 10.892 9.28757C11.0396 9.66806 11.1133 10.0719 11.1133 10.4989C11.1133 10.9183 11.0396 11.3182 10.892 11.6987C10.7445 12.0791 10.5348 12.4169 10.2631 12.712C9.99127 12.9993 9.66513 13.2284 9.28464 13.3992C8.91191 13.5623 8.49648 13.6438 8.03833 13.6438ZM6.02328 10.5106C6.02328 10.9299 6.11258 11.3104 6.29118 11.6521C6.47754 11.9937 6.72214 12.2655 7.02498 12.4674C7.32782 12.6615 7.66561 12.7586 8.03833 12.7586C8.41106 12.7586 8.74885 12.6576 9.05169 12.4558C9.36229 12.2539 9.6069 11.9821 9.78549 11.6404C9.97186 11.291 10.065 10.9066 10.065 10.4873C10.065 10.068 9.97186 9.68748 9.78549 9.34581C9.6069 9.00414 9.36229 8.73236 9.05169 8.53047C8.74885 8.32857 8.41106 8.22763 8.03833 8.22763C7.66561 8.22763 7.32782 8.33246 7.02498 8.54212C6.72214 8.74401 6.47754 9.01579 6.29118 9.35746C6.11258 9.69912 6.02328 10.0835 6.02328 10.5106ZM17.6318 13.5273H16.6068V10.1262C16.6068 9.4817 16.5058 9.01191 16.3039 8.71683C16.1098 8.41399 15.8109 8.26257 15.4071 8.26257C15.1275 8.26257 14.848 8.33246 14.5684 8.47223C14.2967 8.612 14.052 8.80225 13.8346 9.04297C13.625 9.27592 13.4735 9.5477 13.3804 9.85831V13.5273H12.3554V7.44723H13.2872V8.75178C13.4503 8.46446 13.6599 8.21598 13.9162 8.00632C14.1724 7.79666 14.4636 7.63359 14.7897 7.51712C15.1159 7.40064 15.4575 7.3424 15.8147 7.3424C16.1642 7.3424 16.4554 7.4084 16.6883 7.54041C16.929 7.66465 17.1154 7.84325 17.2474 8.07621C17.3872 8.3014 17.4842 8.56929 17.5386 8.8799C17.6007 9.19051 17.6318 9.52829 17.6318 9.89325V13.5273Z" fill="#DADADA"/>
<circle cx="30.75" cy="10.2498" r="9.11111" fill="url(#paint0_linear_1_221)"/>
<circle cx="30.75" cy="10.2498" r="9.11111" fill="url(#paint1_radial_1_221)" fill-opacity="0.42"/>
<path d="M35.273 13.777C35.6737 13.777 36 13.4507 36 13.0501L35.9999 7.57265C35.9999 7.17201 35.6736 6.8457 35.273 6.8457H26.727C26.3263 6.8457 26 7.17201 26 7.57265L26.0001 13.0501C26.0001 13.4507 26.3264 13.777 26.727 13.777H35.273ZM35.4111 13.0501C35.4111 13.126 35.3494 13.1882 35.273 13.1882H26.727C26.6511 13.1882 26.5888 13.1265 26.5888 13.0501L26.5889 7.57265C26.5889 7.49677 26.6506 7.43453 26.727 7.43453H35.273C35.3489 7.43453 35.4112 7.49627 35.4112 7.57265L35.4111 13.0501Z" fill="white"/>
<path d="M32.6034 8.37549C31.575 8.37549 30.7383 9.2122 30.7383 10.2406C30.7383 11.2691 31.575 12.1058 32.6034 12.1058C33.6319 12.1058 34.4686 11.2691 34.4686 10.2406C34.4686 9.2122 33.6319 8.37549 32.6034 8.37549ZM32.6034 11.5169C31.8998 11.5169 31.3271 10.9443 31.3271 10.2406C31.3271 9.53693 31.8998 8.96427 32.6034 8.96427C33.3071 8.96427 33.8797 9.53693 33.8797 10.2406C33.8797 10.9443 33.3071 11.5169 32.6034 11.5169Z" fill="white"/>
<path d="M27.0842 6C26.9218 6 26.7898 6.13203 26.7898 6.29437C26.7898 6.45672 26.9218 6.58874 27.0842 6.58874H28.6443C28.8066 6.58874 28.9386 6.45671 28.9386 6.29437C28.9387 6.13202 28.8062 6 28.6443 6H27.0842Z" fill="white"/>
<defs>
<filter id="filter0_i_1_221" x="0" y="0" width="41" height="21.6389" filterUnits="userSpaceOnUse" color-interpolation-filters="sRGB">
<feFlood flood-opacity="0" result="BackgroundImageFix"/>
<feBlend mode="normal" in="SourceGraphic" in2="BackgroundImageFix" result="shape"/>
<feColorMatrix in="SourceAlpha" type="matrix" values="0 0 0 0 0 0 0 0 0 0 0 0 0 0 0 0 0 0 127 0" result="hardAlpha"/>
<feOffset dy="1.13889"/>
<feGaussianBlur stdDeviation="1.13889"/>
<feComposite in2="hardAlpha" operator="arithmetic" k2="-1" k3="1"/>
<feColorMatrix type="matrix" values="0 0 0 0 0.145833 0 0 0 0 0.145226 0 0 0 0 0.145226 0 0 0 0.25 0"/>
<feBlend mode="normal" in2="shape" result="effect1_innerShadow_1_221"/>
</filter>
<linearGradient id="paint0_linear_1_221" x1="23.1488" y1="-0.926069" x2="42.028" y2="1.14609" gradientUnits="userSpaceOnUse">
<stop stop-color="#A281EB"/>
<stop offset="1" stop-color="#6E3BE0"/>
</linearGradient>
<radialGradient id="paint1_radial_1_221" cx="0" cy="0" r="1" gradientUnits="userSpaceOnUse" gradientTransform="translate(30.75 -0.000217495) rotate(90) scale(10.25)">
<stop stop-color="white"/>
<stop offset="1" stop-color="white" stop-opacity="0"/>
</radialGradient>
</defs>
</svg>
