<svg width="20" height="15" viewBox="0 0 20 15" fill="none" xmlns="http://www.w3.org/2000/svg">
<path d="M17.5771 0.960693C12.5246 -0.320231 7.54322 -0.320231 2.49068 0.960693C0.996274 1.3165 0 2.73975 0 4.23416V10.7099C0 12.2044 0.996274 13.6276 2.49068 13.9834C7.47205 15.2643 12.5246 15.2643 17.506 13.9834C19.0004 13.6276 19.9966 12.2044 19.9966 10.7099V4.23416C20.0678 2.73975 19.0004 1.38767 17.5771 0.960693ZM12.4534 8.29042L9.4646 10.283C9.32228 10.3541 9.10879 10.4253 8.96646 10.4253C8.82414 10.4253 8.68181 10.3541 8.53949 10.283C8.25484 10.1406 8.04135 9.78483 8.04135 9.42902V5.51509C8.04135 5.15928 8.25484 4.80346 8.53949 4.66114C8.82414 4.51881 9.25111 4.51881 9.53576 4.7323L12.5246 6.72485C12.8092 6.93834 12.9516 7.22299 12.9516 7.50764C12.8804 7.86345 12.7381 8.1481 12.4534 8.29042Z" fill="#D9D9D9"/>
</svg>
